<svg width="30" height="30" viewBox="0 0 30 30" fill="none" xmlns="http://www.w3.org/2000/svg">
<g clip-path="url(#clip0_37_210)">
<path d="M8.32561 13.7252C10.0886 17.1901 12.9291 20.0183 16.3939 21.7936L19.0874 19.1C19.418 18.7695 19.9077 18.6593 20.3363 18.8062C21.7075 19.2592 23.1889 19.5041 24.7071 19.5041C25.3805 19.5041 25.9314 20.055 25.9314 20.7284V25.0013C25.9314 25.6747 25.3805 26.2256 24.7071 26.2256C13.2107 26.2256 3.89355 16.9085 3.89355 5.41207C3.89355 4.73869 4.4445 4.18774 5.11788 4.18774H9.40302C10.0764 4.18774 10.6273 4.73869 10.6273 5.41207C10.6273 6.94248 10.8722 8.41167 11.3252 9.78291C11.4599 10.2114 11.3619 10.6889 11.0191 11.0317L8.32561 13.7252Z" fill="black"/>
</g>
<defs>
<clipPath id="clip0_37_210">
<rect width="29.3838" height="29.3838" fill="white" transform="translate(0.219727 0.51474)"/>
</clipPath>
</defs>
</svg>
