<svg width="52" height="52" viewBox="0 0 52 52" fill="none" xmlns="http://www.w3.org/2000/svg">
<g clip-path="url(#clip0_36_526)">
<path d="M19.3915 23.7008H15.0822V28.01H19.3915V23.7008ZM28.0099 23.7008H23.7007V28.01H28.0099V23.7008ZM36.6283 23.7008H32.3191V28.01H36.6283V23.7008ZM40.9375 8.61854H38.7829V4.30933H34.4737V8.61854H17.2368V4.30933H12.9276V8.61854H10.773C8.38142 8.61854 6.48537 10.5577 6.48537 12.9277L6.46382 43.0922C6.46382 45.4623 8.38142 47.4014 10.773 47.4014H40.9375C43.3076 47.4014 45.2467 45.4623 45.2467 43.0922V12.9277C45.2467 10.5577 43.3076 8.61854 40.9375 8.61854ZM40.9375 43.0922H10.773V19.3916H40.9375V43.0922Z" fill="#754480"/>
</g>
<defs>
<clipPath id="clip0_36_526">
<rect width="51.7105" height="51.7105" fill="white"/>
</clipPath>
</defs>
</svg>
