<svg width="30" height="30" viewBox="0 0 30 30" fill="none" xmlns="http://www.w3.org/2000/svg">
<g clip-path="url(#clip0_36_45)">
<path d="M11.25 13.75H8.75V16.25H11.25V13.75ZM16.25 13.75H13.75V16.25H16.25V13.75ZM21.25 13.75H18.75V16.25H21.25V13.75ZM23.75 5H22.5V2.5H20V5H10V2.5H7.5V5H6.25C4.8625 5 3.7625 6.125 3.7625 7.5L3.75 25C3.75 26.375 4.8625 27.5 6.25 27.5H23.75C25.125 27.5 26.25 26.375 26.25 25V7.5C26.25 6.125 25.125 5 23.75 5ZM23.75 25H6.25V11.25H23.75V25Z" fill="white"/>
</g>
<defs>
<clipPath id="clip0_36_45">
<rect width="30" height="30" fill="white"/>
</clipPath>
</defs>
</svg>
