<svg width="30" height="30" viewBox="0 0 30 30" fill="none" xmlns="http://www.w3.org/2000/svg">
<path d="M11.9733 29.9936L17.85 23.5533H26.6652C27.4732 23.5533 28.1652 23.8683 28.7411 24.4984C29.3161 25.1296 29.6036 25.8879 29.6036 26.7735C29.6036 27.659 29.3161 28.4173 28.7411 29.0485C28.1652 29.6786 27.4732 29.9936 26.6652 29.9936H11.9733ZM24.1675 10.552L17.9235 3.78967L19.9803 1.53556C20.5435 0.918369 21.2355 0.609772 22.0563 0.609772C22.8761 0.609772 23.5676 0.918369 24.1308 1.53556L26.1877 3.78967C26.7509 4.40686 27.0447 5.15179 27.0692 6.02445C27.0937 6.89603 26.8243 7.64042 26.2611 8.25762L24.1675 10.552ZM1.68892 29.9936C1.27265 29.9936 0.923959 29.839 0.642854 29.5299C0.360769 29.2218 0.219727 28.8397 0.219727 28.3835V23.8351C0.219727 23.6204 0.256456 23.4127 0.329916 23.212C0.403376 23.0102 0.513565 22.8288 0.660484 22.6678L15.7932 6.08402L22.0372 12.9268L6.90455 29.5106C6.75763 29.6716 6.59259 29.7923 6.40943 29.8728C6.22529 29.9533 6.03528 29.9936 5.83938 29.9936H1.68892Z" fill="#4D4D4D"/>
</svg>
