<svg width="42" height="35" viewBox="0 0 42 35" fill="none" xmlns="http://www.w3.org/2000/svg">
<path d="M20.6842 28.0099H33.0947C33.6808 28.0099 34.1717 27.803 34.5675 27.3893C34.9646 26.9771 35.1632 26.4657 35.1632 25.8553V17.2368C35.1632 16.6264 34.9646 16.1143 34.5675 15.7006C34.1717 15.2884 33.6808 15.0822 33.0947 15.0822H20.6842C20.0982 15.0822 19.6073 15.2884 19.2115 15.7006C18.8144 16.1143 18.6158 16.6264 18.6158 17.2368V25.8553C18.6158 26.4657 18.8144 26.9771 19.2115 27.3893C19.6073 27.803 20.0982 28.0099 20.6842 28.0099ZM4.13684 34.4737C2.99921 34.4737 2.02567 34.0521 1.21623 33.2089C0.405411 32.3643 0 31.3495 0 30.1645V4.30921C0 3.12418 0.405411 2.11008 1.21623 1.26691C2.02567 0.422302 2.99921 0 4.13684 0H37.2316C38.3692 0 39.3434 0.422302 40.1543 1.26691C40.9637 2.11008 41.3684 3.12418 41.3684 4.30921V30.1645C41.3684 31.3495 40.9637 32.3643 40.1543 33.2089C39.3434 34.0521 38.3692 34.4737 37.2316 34.4737H4.13684Z" fill="#754480"/>
</svg>
