<svg width="24" height="20" viewBox="0 0 24 20" fill="none" xmlns="http://www.w3.org/2000/svg">
<path d="M12 16.25H19.2C19.54 16.25 19.8248 16.13 20.0544 15.89C20.2848 15.6508 20.4 15.3542 20.4 15V10C20.4 9.64583 20.2848 9.34875 20.0544 9.10875C19.8248 8.86958 19.54 8.75 19.2 8.75H12C11.66 8.75 11.3752 8.86958 11.1456 9.10875C10.9152 9.34875 10.8 9.64583 10.8 10V15C10.8 15.3542 10.9152 15.6508 11.1456 15.89C11.3752 16.13 11.66 16.25 12 16.25ZM2.4 20C1.74 20 1.1752 19.7554 0.7056 19.2663C0.2352 18.7763 0 18.1875 0 17.5V2.5C0 1.8125 0.2352 1.22417 0.7056 0.735C1.1752 0.245 1.74 0 2.4 0H21.6C22.26 0 22.8252 0.245 23.2956 0.735C23.7652 1.22417 24 1.8125 24 2.5V17.5C24 18.1875 23.7652 18.7763 23.2956 19.2663C22.8252 19.7554 22.26 20 21.6 20H2.4Z" fill="white"/>
</svg>
